<svg width="40" height="40" viewBox="0 0 40 40" fill="none" xmlns="http://www.w3.org/2000/svg">
<path d="M20 0C31.0457 0 40 8.95431 40 20V34C40 37.3137 37.3137 40 34 40H21V31.2262C21 29.2241 21.1224 27.1504 22.1725 25.4458C23.6625 23.0269 26.1515 21.2971 29.0764 20.8193L29.4595 20.7568C29.7828 20.6459 30 20.3418 30 20C30 19.6582 29.7828 19.3541 29.4595 19.2432L29.0764 19.1807C24.836 18.488 21.512 15.164 20.8193 10.9236L20.7568 10.5405C20.6459 10.2172 20.3418 10 20 10C19.6582 10 19.3541 10.2172 19.2432 10.5405L19.1807 10.9236C18.7029 13.8486 16.9731 16.3375 14.5542 17.8275C12.8496 18.8776 10.7759 19 8.77382 19H0.0245667C0.545597 8.41889 9.28963 0 20 0Z" fill="url(#paint0_radial_5374_2999)"></path>
<path d="M20 0C31.0457 0 40 8.95431 40 20V34C40 37.3137 37.3137 40 34 40H21V31.2262C21 29.2241 21.1224 27.1504 22.1725 25.4458C23.6625 23.0269 26.1515 21.2971 29.0764 20.8193L29.4595 20.7568C29.7828 20.6459 30 20.3418 30 20C30 19.6582 29.7828 19.3541 29.4595 19.2432L29.0764 19.1807C24.836 18.488 21.512 15.164 20.8193 10.9236L20.7568 10.5405C20.6459 10.2172 20.3418 10 20 10C19.6582 10 19.3541 10.2172 19.2432 10.5405L19.1807 10.9236C18.7029 13.8486 16.9731 16.3375 14.5542 17.8275C12.8496 18.8776 10.7759 19 8.77382 19H0.0245667C0.545597 8.41889 9.28963 0 20 0Z" fill="url(#paint1_radial_5374_2999)" style="mix-blend-mode:lighten"></path>
<path d="M20 0C31.0457 0 40 8.95431 40 20V34C40 37.3137 37.3137 40 34 40H21V31.2262C21 29.2241 21.1224 27.1504 22.1725 25.4458C23.6625 23.0269 26.1515 21.2971 29.0764 20.8193L29.4595 20.7568C29.7828 20.6459 30 20.3418 30 20C30 19.6582 29.7828 19.3541 29.4595 19.2432L29.0764 19.1807C24.836 18.488 21.512 15.164 20.8193 10.9236L20.7568 10.5405C20.6459 10.2172 20.3418 10 20 10C19.6582 10 19.3541 10.2172 19.2432 10.5405L19.1807 10.9236C18.7029 13.8486 16.9731 16.3375 14.5542 17.8275C12.8496 18.8776 10.7759 19 8.77382 19H0.0245667C0.545597 8.41889 9.28963 0 20 0Z" fill="url(#paint2_radial_5374_2999)" style="mix-blend-mode:lighten"></path>
<path d="M0 21H8.77382C10.7759 21 12.8495 21.1224 14.5541 22.1724C15.8852 22.9924 17.0076 24.1148 17.8276 25.4459C18.8776 27.1505 19 29.2241 19 31.2262V40H6C2.68629 40 0 37.3137 0 34V21Z" fill="url(#paint3_radial_5374_2999)"></path>
<path d="M0 21H8.77382C10.7759 21 12.8495 21.1224 14.5541 22.1724C15.8852 22.9924 17.0076 24.1148 17.8276 25.4459C18.8776 27.1505 19 29.2241 19 31.2262V40H6C2.68629 40 0 37.3137 0 34V21Z" fill="url(#paint4_radial_5374_2999)" style="mix-blend-mode:lighten"></path>
<path d="M0 21H8.77382C10.7759 21 12.8495 21.1224 14.5541 22.1724C15.8852 22.9924 17.0076 24.1148 17.8276 25.4459C18.8776 27.1505 19 29.2241 19 31.2262V40H6C2.68629 40 0 37.3137 0 34V21Z" fill="url(#paint5_radial_5374_2999)" style="mix-blend-mode:lighten"></path>
<path d="M40 2C40 3.10457 39.1046 4 38 4C36.8954 4 36 3.10457 36 2C36 0.895431 36.8954 0 38 0C39.1046 0 40 0.895431 40 2Z" fill="url(#paint6_radial_5374_2999)"></path>
<path d="M40 2C40 3.10457 39.1046 4 38 4C36.8954 4 36 3.10457 36 2C36 0.895431 36.8954 0 38 0C39.1046 0 40 0.895431 40 2Z" fill="url(#paint7_radial_5374_2999)" style="mix-blend-mode:lighten"></path>
<path d="M40 2C40 3.10457 39.1046 4 38 4C36.8954 4 36 3.10457 36 2C36 0.895431 36.8954 0 38 0C39.1046 0 40 0.895431 40 2Z" fill="url(#paint8_radial_5374_2999)" style="mix-blend-mode:lighten"></path>
<path fill-rule="evenodd" clip-rule="evenodd" d="M29.704 21.7301L29.2376 21.8062C26.6056 22.2362 24.3654 23.7925 23.0239 25.9703C22.1364 27.411 22 29.2225 22 31.2262V39H34C36.7614 39 39 36.7614 39 34V20C39 9.50659 30.4934 1 20 1C10.1821 1 2.10299 8.44705 1.10395 18H8.77382C10.7775 18 12.589 17.8636 14.0297 16.9761C16.2075 15.6346 17.7638 13.3945 18.1938 10.7624L18.2699 10.296L18.2973 10.2162C18.5467 9.48868 19.2309 9 20 9C20.7691 9 21.4533 9.48867 21.7027 10.2162L21.7301 10.296L21.8062 10.7624C22.4296 14.5788 25.4212 17.5704 29.2376 18.1938L29.704 18.2699L29.7838 18.2973C30.5113 18.5467 31 19.2309 31 20C31 20.7691 30.5113 21.4533 29.7838 21.7027L29.704 21.7301ZM0.0245667 19C0.0410909 18.6644 0.0658859 18.331 0.0987521 18C1.1022 7.89336 9.6293 0 20 0C31.0457 0 40 8.95431 40 20V34C40 37.3137 37.3137 40 34 40H21V31.2262C21 29.2241 21.1224 27.1504 22.1725 25.4458C23.6625 23.0269 26.1515 21.2971 29.0764 20.8193L29.4595 20.7568C29.7828 20.6459 30 20.3418 30 20C30 19.6582 29.7828 19.3541 29.4595 19.2432L29.0764 19.1807C24.836 18.488 21.512 15.164 20.8193 10.9236L20.7568 10.5405C20.6459 10.2172 20.3418 10 20 10C19.6582 10 19.3541 10.2172 19.2432 10.5405L19.1807 10.9236C18.7029 13.8486 16.9731 16.3375 14.5542 17.8275C12.8496 18.8776 10.7759 19 8.77382 19H0.0245667ZM8.77382 22H1V34C1 36.7614 3.23858 39 6 39H18V31.2262C18 29.2225 17.8636 27.411 16.9762 25.9703C16.2382 24.7723 15.2277 23.7618 14.0297 23.0238C12.589 22.1364 10.7775 22 8.77382 22ZM8.77382 21C10.7759 21 12.8495 21.1224 14.5541 22.1724C15.8852 22.9924 17.0076 24.1148 17.8276 25.4459C18.8776 27.1505 19 29.2241 19 31.2262V40H6C2.68629 40 0 37.3137 0 34V21H8.77382Z" fill="white"></path>
<path fill-rule="evenodd" clip-rule="evenodd" d="M29.704 21.7301L29.2376 21.8062C26.6056 22.2362 24.3654 23.7925 23.0239 25.9703C22.1364 27.411 22 29.2225 22 31.2262V39H34C36.7614 39 39 36.7614 39 34V20C39 9.50659 30.4934 1 20 1C10.1821 1 2.10299 8.44705 1.10395 18H8.77382C10.7775 18 12.589 17.8636 14.0297 16.9761C16.2075 15.6346 17.7638 13.3945 18.1938 10.7624L18.2699 10.296L18.2973 10.2162C18.5467 9.48868 19.2309 9 20 9C20.7691 9 21.4533 9.48867 21.7027 10.2162L21.7301 10.296L21.8062 10.7624C22.4296 14.5788 25.4212 17.5704 29.2376 18.1938L29.704 18.2699L29.7838 18.2973C30.5113 18.5467 31 19.2309 31 20C31 20.7691 30.5113 21.4533 29.7838 21.7027L29.704 21.7301ZM0.0245667 19C0.0410909 18.6644 0.0658859 18.331 0.0987521 18C1.1022 7.89336 9.6293 0 20 0C31.0457 0 40 8.95431 40 20V34C40 37.3137 37.3137 40 34 40H21V31.2262C21 29.2241 21.1224 27.1504 22.1725 25.4458C23.6625 23.0269 26.1515 21.2971 29.0764 20.8193L29.4595 20.7568C29.7828 20.6459 30 20.3418 30 20C30 19.6582 29.7828 19.3541 29.4595 19.2432L29.0764 19.1807C24.836 18.488 21.512 15.164 20.8193 10.9236L20.7568 10.5405C20.6459 10.2172 20.3418 10 20 10C19.6582 10 19.3541 10.2172 19.2432 10.5405L19.1807 10.9236C18.7029 13.8486 16.9731 16.3375 14.5542 17.8275C12.8496 18.8776 10.7759 19 8.77382 19H0.0245667ZM8.77382 22H1V34C1 36.7614 3.23858 39 6 39H18V31.2262C18 29.2225 17.8636 27.411 16.9762 25.9703C16.2382 24.7723 15.2277 23.7618 14.0297 23.0238C12.589 22.1364 10.7775 22 8.77382 22ZM8.77382 21C10.7759 21 12.8495 21.1224 14.5541 22.1724C15.8852 22.9924 17.0076 24.1148 17.8276 25.4459C18.8776 27.1505 19 29.2241 19 31.2262V40H6C2.68629 40 0 37.3137 0 34V21H8.77382Z" fill="url(#paint9_linear_5374_2999)" style="mix-blend-mode:exclusion"></path>
<path fill-rule="evenodd" clip-rule="evenodd" d="M29.704 21.7301L29.2376 21.8062C26.6056 22.2362 24.3654 23.7925 23.0239 25.9703C22.1364 27.411 22 29.2225 22 31.2262V39H34C36.7614 39 39 36.7614 39 34V20C39 9.50659 30.4934 1 20 1C10.1821 1 2.10299 8.44705 1.10395 18H8.77382C10.7775 18 12.589 17.8636 14.0297 16.9761C16.2075 15.6346 17.7638 13.3945 18.1938 10.7624L18.2699 10.296L18.2973 10.2162C18.5467 9.48868 19.2309 9 20 9C20.7691 9 21.4533 9.48867 21.7027 10.2162L21.7301 10.296L21.8062 10.7624C22.4296 14.5788 25.4212 17.5704 29.2376 18.1938L29.704 18.2699L29.7838 18.2973C30.5113 18.5467 31 19.2309 31 20C31 20.7691 30.5113 21.4533 29.7838 21.7027L29.704 21.7301ZM0.0245667 19C0.0410909 18.6644 0.0658859 18.331 0.0987521 18C1.1022 7.89336 9.6293 0 20 0C31.0457 0 40 8.95431 40 20V34C40 37.3137 37.3137 40 34 40H21V31.2262C21 29.2241 21.1224 27.1504 22.1725 25.4458C23.6625 23.0269 26.1515 21.2971 29.0764 20.8193L29.4595 20.7568C29.7828 20.6459 30 20.3418 30 20C30 19.6582 29.7828 19.3541 29.4595 19.2432L29.0764 19.1807C24.836 18.488 21.512 15.164 20.8193 10.9236L20.7568 10.5405C20.6459 10.2172 20.3418 10 20 10C19.6582 10 19.3541 10.2172 19.2432 10.5405L19.1807 10.9236C18.7029 13.8486 16.9731 16.3375 14.5542 17.8275C12.8496 18.8776 10.7759 19 8.77382 19H0.0245667ZM8.77382 22H1V34C1 36.7614 3.23858 39 6 39H18V31.2262C18 29.2225 17.8636 27.411 16.9762 25.9703C16.2382 24.7723 15.2277 23.7618 14.0297 23.0238C12.589 22.1364 10.7775 22 8.77382 22ZM8.77382 21C10.7759 21 12.8495 21.1224 14.5541 22.1724C15.8852 22.9924 17.0076 24.1148 17.8276 25.4459C18.8776 27.1505 19 29.2241 19 31.2262V40H6C2.68629 40 0 37.3137 0 34V21H8.77382Z" fill="url(#paint10_linear_5374_2999)"></path>
<defs>
<radialGradient id="paint0_radial_5374_2999" cx="0" cy="0" r="1" gradientUnits="userSpaceOnUse" gradientTransform="translate(9.50001 1.99999) rotate(52.5074) scale(46.0027 196.428)">
<stop stop-color="#4CE0F0"></stop>
<stop offset="0.192708" stop-color="#4C70F0"></stop>
<stop offset="1" stop-opacity="0"></stop>
</radialGradient>
<radialGradient id="paint1_radial_5374_2999" cx="0" cy="0" r="1" gradientUnits="userSpaceOnUse" gradientTransform="translate(1.5 38.5) rotate(-38.5584) scale(44.1192 188.385)">
<stop stop-color="#E6D58C"></stop>
<stop offset="0.192708" stop-color="#D5723B"></stop>
<stop offset="1" stop-color="#312935"></stop>
</radialGradient>
<radialGradient id="paint2_radial_5374_2999" cx="0" cy="0" r="1" gradientUnits="userSpaceOnUse" gradientTransform="translate(37 9) rotate(146.31) scale(28.8444 39.4368)">
<stop stop-color="#EBF5EE"></stop>
<stop offset="0.244549" stop-color="#4CC9BB"></stop>
<stop offset="1" stop-color="#4F5EAF"></stop>
</radialGradient>
<radialGradient id="paint3_radial_5374_2999" cx="0" cy="0" r="1" gradientUnits="userSpaceOnUse" gradientTransform="translate(9.50001 1.99999) rotate(52.5074) scale(46.0027 196.428)">
<stop stop-color="#4CE0F0"></stop>
<stop offset="0.192708" stop-color="#4C70F0"></stop>
<stop offset="1" stop-opacity="0"></stop>
</radialGradient>
<radialGradient id="paint4_radial_5374_2999" cx="0" cy="0" r="1" gradientUnits="userSpaceOnUse" gradientTransform="translate(1.5 38.5) rotate(-38.5584) scale(44.1192 188.385)">
<stop stop-color="#E6D58C"></stop>
<stop offset="0.192708" stop-color="#D5723B"></stop>
<stop offset="1" stop-color="#312935"></stop>
</radialGradient>
<radialGradient id="paint5_radial_5374_2999" cx="0" cy="0" r="1" gradientUnits="userSpaceOnUse" gradientTransform="translate(37 9) rotate(146.31) scale(28.8444 39.4368)">
<stop stop-color="#EBF5EE"></stop>
<stop offset="0.244549" stop-color="#4CC9BB"></stop>
<stop offset="1" stop-color="#4F5EAF"></stop>
</radialGradient>
<radialGradient id="paint6_radial_5374_2999" cx="0" cy="0" r="1" gradientUnits="userSpaceOnUse" gradientTransform="translate(9.50001 1.99999) rotate(52.5074) scale(46.0027 196.428)">
<stop stop-color="#4CE0F0"></stop>
<stop offset="0.192708" stop-color="#4C70F0"></stop>
<stop offset="1" stop-opacity="0"></stop>
</radialGradient>
<radialGradient id="paint7_radial_5374_2999" cx="0" cy="0" r="1" gradientUnits="userSpaceOnUse" gradientTransform="translate(1.5 38.5) rotate(-38.5584) scale(44.1192 188.385)">
<stop stop-color="#E6D58C"></stop>
<stop offset="0.192708" stop-color="#D5723B"></stop>
<stop offset="1" stop-color="#312935"></stop>
</radialGradient>
<radialGradient id="paint8_radial_5374_2999" cx="0" cy="0" r="1" gradientUnits="userSpaceOnUse" gradientTransform="translate(37 9) rotate(146.31) scale(28.8444 39.4368)">
<stop stop-color="#EBF5EE"></stop>
<stop offset="0.244549" stop-color="#4CC9BB"></stop>
<stop offset="1" stop-color="#4F5EAF"></stop>
</radialGradient>
<linearGradient id="paint9_linear_5374_2999" x1="-0.5" y1="16.5" x2="16.5" y2="22.5" gradientUnits="userSpaceOnUse">
<stop stop-color="#0046F9"></stop>
<stop offset="0.166667" stop-color="#16DBF6"></stop>
<stop offset="0.278269" stop-color="white"></stop>
<stop offset="0.416267" stop-color="#FFE713"></stop>
<stop offset="0.55171" stop-color="#FF7917"></stop>
<stop offset="0.692008" stop-color="#FB0000"></stop>
<stop offset="0.827962" stop-color="#B30000"></stop>
<stop offset="1" stop-color="#DCCDC4"></stop>
</linearGradient>
<linearGradient id="paint10_linear_5374_2999" x1="36.5" y1="30" x2="21.5" y2="22.5" gradientUnits="userSpaceOnUse">
<stop stop-color="#5CE0F2"></stop>
<stop offset="1" stop-opacity="0"></stop>
</linearGradient>
</defs>
</svg>